<svg width="52" height="56" viewBox="0 0 52 56" fill="none" xmlns="http://www.w3.org/2000/svg">
<path d="M11.3013 0.650085L9.94893 3.44852L6.87158 3.81649L9.21064 5.88368L8.59424 9.05009L11.3013 7.46805L14.0106 9.05009L13.3942 5.88368L15.7333 3.81649L12.656 3.44852L11.3013 0.650085ZM14.0106 9.05009H8.59424H7.23252C3.71919 9.05009 0.871582 11.8977 0.871582 15.411V54.6501C0.871614 54.9683 0.998052 55.2735 1.22309 55.4986C1.44813 55.7236 1.75333 55.8501 2.07158 55.8501H50.0716C50.3898 55.8501 50.695 55.7236 50.9201 55.4986C51.1451 55.2735 51.2716 54.9683 51.2716 54.6501V15.411C51.2716 11.8977 48.424 9.05009 44.9106 9.05009H43.5489H38.1325H33.7028H28.2864H23.8567H18.4403H14.0106ZM18.4403 9.05009L21.1474 7.46805L23.8567 9.05009L23.2403 5.88368L25.5794 3.81649L22.5021 3.44852L21.1474 0.650085L19.795 3.44852L16.7177 3.81649L19.0567 5.88368L18.4403 9.05009ZM28.2864 9.05009L30.9958 7.46805L33.7028 9.05009L33.0864 5.88368L35.4255 3.81649L32.3481 3.44852L30.9958 0.650085L29.6411 3.44852L26.5638 3.81649L28.9028 5.88368L28.2864 9.05009ZM38.1325 9.05009L40.8419 7.46805L43.5489 9.05009L42.9325 5.88368L45.2716 3.81649L42.1942 3.44852L40.8419 0.650085L39.4872 3.44852L36.4099 3.81649L38.7489 5.88368L38.1325 9.05009ZM7.23252 11.4501H44.9106C47.1573 11.4501 48.8716 13.1644 48.8716 15.411V53.4501H30.8716V43.8501C30.8716 43.5318 30.7451 43.2266 30.5201 43.0016C30.295 42.7766 29.9898 42.6501 29.6716 42.6501H22.4716C22.1533 42.6501 21.8481 42.7766 21.6231 43.0016C21.3981 43.2266 21.2716 43.5318 21.2716 43.8501V53.4501H3.27158V15.411C3.27158 13.1644 4.98585 11.4501 7.23252 11.4501ZM8.07158 13.8501C7.75333 13.8501 7.44813 13.9766 7.22309 14.2016C6.99805 14.4266 6.87161 14.7318 6.87158 15.0501V19.8501C6.87161 20.1683 6.99805 20.4735 7.22309 20.6986C7.44813 20.9236 7.75333 21.0501 8.07158 21.0501H15.2716C15.5898 21.0501 15.895 20.9236 16.1201 20.6986C16.3451 20.4735 16.4716 20.1683 16.4716 19.8501V15.0501C16.4716 14.7318 16.3451 14.4266 16.1201 14.2016C15.895 13.9766 15.5898 13.8501 15.2716 13.8501H8.07158ZM22.4716 13.8501C22.1533 13.8501 21.8481 13.9766 21.6231 14.2016C21.3981 14.4266 21.2716 14.7318 21.2716 15.0501V19.8501C21.2716 20.1683 21.3981 20.4735 21.6231 20.6986C21.8481 20.9236 22.1533 21.0501 22.4716 21.0501H29.6716C29.9898 21.0501 30.295 20.9236 30.5201 20.6986C30.7451 20.4735 30.8716 20.1683 30.8716 19.8501V15.0501C30.8716 14.7318 30.7451 14.4266 30.5201 14.2016C30.295 13.9766 29.9898 13.8501 29.6716 13.8501H22.4716ZM36.8716 13.8501C36.5533 13.8501 36.2481 13.9766 36.0231 14.2016C35.7981 14.4266 35.6716 14.7318 35.6716 15.0501V19.8501C35.6716 20.1683 35.7981 20.4735 36.0231 20.6986C36.2481 20.9236 36.5533 21.0501 36.8716 21.0501H44.0716C44.3898 21.0501 44.695 20.9236 44.9201 20.6986C45.1451 20.4735 45.2716 20.1683 45.2716 19.8501V15.0501C45.2716 14.7318 45.1451 14.4266 44.9201 14.2016C44.695 13.9766 44.3898 13.8501 44.0716 13.8501H36.8716ZM9.27158 16.2501H14.0716V18.6501H9.27158V16.2501ZM23.6716 16.2501H28.4716V18.6501H23.6716V16.2501ZM38.0716 16.2501H42.8716V18.6501H38.0716V16.2501ZM8.07158 23.4501C7.75333 23.4501 7.44813 23.5766 7.22309 23.8016C6.99805 24.0266 6.87161 24.3318 6.87158 24.6501V29.4501C6.87161 29.7683 6.99805 30.0735 7.22309 30.2986C7.44813 30.5236 7.75333 30.6501 8.07158 30.6501H15.2716C15.5898 30.6501 15.895 30.5236 16.1201 30.2986C16.3451 30.0735 16.4716 29.7683 16.4716 29.4501V24.6501C16.4716 24.3318 16.3451 24.0266 16.1201 23.8016C15.895 23.5766 15.5898 23.4501 15.2716 23.4501H8.07158ZM22.4716 23.4501C22.1533 23.4501 21.8481 23.5766 21.6231 23.8016C21.3981 24.0266 21.2716 24.3318 21.2716 24.6501V29.4501C21.2716 29.7683 21.3981 30.0735 21.6231 30.2986C21.8481 30.5236 22.1533 30.6501 22.4716 30.6501H29.6716C29.9898 30.6501 30.295 30.5236 30.5201 30.2986C30.7451 30.0735 30.8716 29.7683 30.8716 29.4501V24.6501C30.8716 24.3318 30.7451 24.0266 30.5201 23.8016C30.295 23.5766 29.9898 23.4501 29.6716 23.4501H22.4716ZM36.8716 23.4501C36.5533 23.4501 36.2481 23.5766 36.0231 23.8016C35.7981 24.0266 35.6716 24.3318 35.6716 24.6501V29.4501C35.6716 29.7683 35.7981 30.0735 36.0231 30.2986C36.2481 30.5236 36.5533 30.6501 36.8716 30.6501H44.0716C44.3898 30.6501 44.695 30.5236 44.9201 30.2986C45.1451 30.0735 45.2716 29.7683 45.2716 29.4501V24.6501C45.2716 24.3318 45.1451 24.0266 44.9201 23.8016C44.695 23.5766 44.3898 23.4501 44.0716 23.4501H36.8716ZM9.27158 25.8501H14.0716V28.2501H9.27158V25.8501ZM23.6716 25.8501H28.4716V28.2501H23.6716V25.8501ZM38.0716 25.8501H42.8716V28.2501H38.0716V25.8501ZM8.07158 33.0501C7.75333 33.0501 7.44813 33.1766 7.22309 33.4016C6.99805 33.6266 6.87161 33.9318 6.87158 34.2501V39.0501C6.87161 39.3683 6.99805 39.6735 7.22309 39.8986C7.44813 40.1236 7.75333 40.2501 8.07158 40.2501H15.2716C15.5898 40.2501 15.895 40.1236 16.1201 39.8986C16.3451 39.6735 16.4716 39.3683 16.4716 39.0501V34.2501C16.4716 33.9318 16.3451 33.6266 16.1201 33.4016C15.895 33.1766 15.5898 33.0501 15.2716 33.0501H8.07158ZM22.4716 33.0501C22.1533 33.0501 21.8481 33.1766 21.6231 33.4016C21.3981 33.6266 21.2716 33.9318 21.2716 34.2501V39.0501C21.2716 39.3683 21.3981 39.6735 21.6231 39.8986C21.8481 40.1236 22.1533 40.2501 22.4716 40.2501H29.6716C29.9898 40.2501 30.295 40.1236 30.5201 39.8986C30.7451 39.6735 30.8716 39.3683 30.8716 39.0501V34.2501C30.8716 33.9318 30.7451 33.6266 30.5201 33.4016C30.295 33.1766 29.9898 33.0501 29.6716 33.0501H22.4716ZM36.8716 33.0501C36.5533 33.0501 36.2481 33.1766 36.0231 33.4016C35.7981 33.6266 35.6716 33.9318 35.6716 34.2501V39.0501C35.6716 39.3683 35.7981 39.6735 36.0231 39.8986C36.2481 40.1236 36.5533 40.2501 36.8716 40.2501H44.0716C44.3898 40.2501 44.695 40.1236 44.9201 39.8986C45.1451 39.6735 45.2716 39.3683 45.2716 39.0501V34.2501C45.2716 33.9318 45.1451 33.6266 44.9201 33.4016C44.695 33.1766 44.3898 33.0501 44.0716 33.0501H36.8716ZM9.27158 35.4501H14.0716V37.8501H9.27158V35.4501ZM23.6716 35.4501H28.4716V37.8501H23.6716V35.4501ZM38.0716 35.4501H42.8716V37.8501H38.0716V35.4501ZM8.07158 42.6501C7.75333 42.6501 7.44813 42.7766 7.22309 43.0016C6.99805 43.2266 6.87161 43.5318 6.87158 43.8501V48.6501C6.87161 48.9683 6.99805 49.2735 7.22309 49.4986C7.44813 49.7236 7.75333 49.8501 8.07158 49.8501H15.2716C15.5898 49.8501 15.895 49.7236 16.1201 49.4986C16.3451 49.2735 16.4716 48.9683 16.4716 48.6501V43.8501C16.4716 43.5318 16.3451 43.2266 16.1201 43.0016C15.895 42.7766 15.5898 42.6501 15.2716 42.6501H8.07158ZM36.8716 42.6501C36.5533 42.6501 36.2481 42.7766 36.0231 43.0016C35.7981 43.2266 35.6716 43.5318 35.6716 43.8501V48.6501C35.6716 48.9683 35.7981 49.2735 36.0231 49.4986C36.2481 49.7236 36.5533 49.8501 36.8716 49.8501H44.0716C44.3898 49.8501 44.695 49.7236 44.9201 49.4986C45.1451 49.2735 45.2716 48.9683 45.2716 48.6501V43.8501C45.2716 43.5318 45.1451 43.2266 44.9201 43.0016C44.695 42.7766 44.3898 42.6501 44.0716 42.6501H36.8716ZM9.27158 45.0501H14.0716V47.4501H9.27158V45.0501ZM23.6716 45.0501H28.4716V53.4501H23.6716V45.0501ZM38.0716 45.0501H42.8716V47.4501H38.0716V45.0501Z" fill="black" fill-opacity="0.8"/>
</svg>
